<?xml version="1.0" encoding="UTF-8"?>
<svg version="1.1" xmlns="http://www.w3.org/2000/svg" width="800" height="511">
<path d="M0 0 C4.07889712 0.15172949 8.15917137 0.21643089 12.24010086 0.28953934 C18.80429251 0.41701661 25.36542715 0.59165253 31.92735672 0.80540848 C40.27412247 1.07581423 48.61766286 1.23263689 56.96837234 1.3361702 C87.90353855 1.74872475 87.90353855 1.74872475 103.27305984 2.56663895 C103.99549377 2.60425842 104.7179277 2.6418779 105.46225357 2.68063736 C118.77993693 3.45403617 118.77993693 3.45403617 124.23399734 7.09007645 C125.12609665 10.98287342 124.96791422 12.89824562 122.86290359 16.31663895 C120.75203903 19.01117293 118.53301087 21.55372254 116.23399734 24.09007645 C115.55119705 24.84514481 115.55119705 24.84514481 114.85460281 25.61546707 C112.35266327 28.37329646 109.82654518 31.10696051 107.28087234 33.82445145 C104.53784999 36.75285954 101.85479617 39.73178148 99.17149734 42.71507645 C93.33992665 49.10000786 87.20633019 55.17403526 81.0462532 61.24095535 C79.87848343 62.39603592 79.87848343 62.39603592 78.68712234 63.57445145 C77.65313309 64.59103836 77.65313309 64.59103836 76.59825516 65.62816238 C74.70508751 67.59952779 72.928605 69.59714269 71.15294266 71.67113113 C66.87364856 76.5944695 62.26210475 81.17523453 57.63324356 85.76599503 C56.04046244 87.34580778 54.45100577 88.92890231 52.86229324 90.51280594 C48.91885118 94.44300303 44.96993448 98.36768417 41.02116776 102.29253006 C37.67260708 105.62123359 34.32619041 108.95206576 30.98248672 112.28564835 C29.42984497 113.831892 27.87418332 115.37505025 26.31834793 116.91807938 C21.67577897 121.53688186 17.17518096 126.20997238 12.91453934 131.18468094 C9.74972722 134.77293926 6.32257118 138.10269813 2.92149734 141.46507645 C2.14894608 142.23384109 1.37639481 143.00260574 0.58043289 143.79466629 C-2.68976301 147.04867474 -5.96593756 150.29663911 -9.24158859 153.54515457 C-11.6476555 155.93302997 -14.05063304 158.32398438 -16.45350266 160.71507645 C-17.18287033 161.43614578 -17.91223801 162.15721512 -18.66370773 162.90013504 C-22.62173696 166.83942317 -26.36700215 170.88274048 -30.01234055 175.11156082 C-33.07291652 178.56456203 -36.35969237 181.7859812 -39.64100266 185.02757645 C-40.73324142 186.11413528 -40.73324142 186.11413528 -41.84754562 187.22264481 C-44.92657217 190.28550068 -48.01158588 193.34229955 -51.09608078 196.39964676 C-53.36315724 198.64851762 -55.62713231 200.90047883 -57.89100266 203.15257645 C-58.57662277 203.82989822 -59.26224289 204.50722 -59.96863937 205.20506668 C-63.89385208 209.11056195 -67.60879894 213.13178295 -71.22523117 217.32445145 C-73.04304926 219.40755403 -74.94949004 221.37233526 -76.92225266 223.30882645 C-77.63510422 224.01394363 -78.34795578 224.71906082 -79.08240891 225.4455452 C-80.53813807 226.8752327 -81.99386724 228.3049202 -83.44959641 229.7346077 C-87.55685371 233.79730163 -91.48283662 237.93925058 -95.23450851 242.33372879 C-96.24315998 243.49047017 -97.28984317 244.61526932 -98.37366867 245.70189285 C-100.0334573 247.34148845 -100.0334573 247.34148845 -101.76600266 250.09007645 C-99.34645237 260.52260799 -90.31219497 268.95288857 -83.48475266 276.9064827 C-81.05169633 279.74249268 -78.68155174 282.62463002 -76.32850266 285.52757645 C-72.41296073 290.33650405 -68.39926684 295.05276717 -64.35267258 299.75120926 C-61.38525202 303.19712462 -58.43936964 306.65930023 -55.51502609 310.14183426 C-51.64273106 314.7517093 -47.71634804 319.2812516 -43.64100266 323.71507645 C-39.57191161 328.14415027 -35.75735494 332.72732889 -31.98084641 337.4064827 C-29.80967439 340.03716202 -27.56358909 342.56950069 -25.26600266 345.09007645 C-22.24317845 348.40997131 -19.34088104 351.78771756 -16.51600266 355.27757645 C-12.35515496 360.41702072 -8.04865777 365.41333796 -3.70667648 370.39915848 C-0.17440182 374.45791003 3.32826771 378.53897754 6.79649734 382.65257645 C10.56972677 387.12691038 14.36041606 391.58542349 18.17149734 396.02757645 C18.66972 396.6082991 19.16794266 397.18902176 19.68126297 397.78734207 C21.19852244 399.55519407 22.71618096 401.32270258 24.23399734 403.09007645 C44.53735001 426.73168106 44.53735001 426.73168106 53.93321609 438.2971077 C55.98120134 440.78320184 58.0667911 443.23194413 60.1688118 445.67235184 C85.20648537 474.84525699 85.20648537 474.84525699 85.24571609 485.17601395 C83.85237378 489.18927018 81.88602101 490.0202494 78.23399734 492.09007645 C66.22826196 495.23225469 52.92371268 494.57362346 40.60899734 494.77757645 C39.55184525 494.79753677 38.49469315 494.8174971 37.40550613 494.83806229 C14.66783102 495.25733313 -8.04108495 494.90752718 -30.76600266 494.09007645 C-32.16411179 494.04360977 -32.16411179 494.04360977 -33.59046555 493.99620438 C-36.43589082 493.89916025 -39.28055913 493.78934898 -42.12537766 493.67601395 C-42.98834457 493.64754379 -43.85131149 493.61907364 -44.74042892 493.58974075 C-51.05667708 493.31551025 -56.61609115 492.97654809 -61.53944016 488.6564827 C-62.39795578 487.66519363 -63.25647141 486.67390457 -64.14100266 485.65257645 C-64.61086594 485.11761551 -65.08072922 484.58265457 -65.56483078 484.0314827 C-69.30636028 479.73809026 -72.88388373 475.30785283 -76.45350266 470.87132645 C-79.40974307 467.31584811 -82.53907262 463.94501503 -85.68885422 460.56175613 C-88.59969671 457.41626616 -91.3466544 454.19181448 -94.01600266 450.84007645 C-98.48044585 445.28361118 -103.34676508 440.16445126 -108.2506218 434.99998856 C-112.57034426 430.42817815 -116.60903287 425.7194528 -120.52772141 420.7971077 C-123.15996199 417.61361254 -125.94270389 414.60359122 -128.76600266 411.59007645 C-132.39554423 407.7153876 -135.88348622 403.80107405 -139.20350266 399.65257645 C-143.2281229 394.63458351 -147.55174641 389.96979319 -151.96009445 385.29271317 C-155.29887911 381.73023336 -158.4636245 378.09304914 -161.51600266 374.27757645 C-164.97706841 369.95441373 -168.68092721 366.06531417 -172.64881516 362.20726395 C-174.63479516 360.22128394 -176.45493807 358.17247782 -178.26600266 356.02757645 C-185.12731909 348.00076151 -185.12731909 348.00076151 -194.14100266 342.96507645 C-197.00181321 342.87570322 -197.00181321 342.87570322 -199.76600266 345.09007645 C-200.27311091 348.14748511 -200.58787531 351.00958485 -200.76600266 354.09007645 C-200.81764572 354.93217667 -200.86928879 355.77427689 -200.9224968 356.64189529 C-201.07262698 359.41833809 -201.18981207 362.19447183 -201.29725266 364.97288895 C-201.33878464 366.0106749 -201.38031662 367.04846085 -201.42310715 368.11769485 C-201.84501376 379.23153242 -202.04002085 390.34797793 -202.2115593 401.46803665 C-202.30505791 407.47369779 -202.41029984 413.47915068 -202.51600266 419.4846077 C-202.54700058 421.24982018 -202.54700058 421.24982018 -202.57862473 423.05069351 C-202.75555623 432.91960203 -202.98119929 442.78621549 -203.26600266 452.65257645 C-203.30145187 453.94341141 -203.33690109 455.23424637 -203.37342453 456.56419754 C-204.15476529 482.21479239 -204.15476529 482.21479239 -206.76600266 488.09007645 C-217.22075054 497.27758216 -238.73679206 494.25259951 -251.75037766 494.2580452 C-253.57819773 494.26126765 -255.40601756 494.26463242 -257.23383713 494.26813126 C-261.04957806 494.27408668 -264.86529647 494.27597486 -268.68104172 494.27537918 C-273.5263973 494.27527775 -278.37160576 494.28892708 -283.21692657 494.30615139 C-286.98860438 494.3173695 -290.7602477 494.31929541 -294.53194046 494.31876945 C-296.31618125 494.31993496 -298.10042337 494.32427437 -299.88464737 494.33210182 C-332.46934744 494.46168648 -332.46934744 494.46168648 -341.76600266 488.09007645 C-345.11112741 483.07238931 -344.89158191 477.49833303 -344.87952805 471.60399246 C-344.87945251 470.36323456 -344.87937698 469.12247665 -344.87929916 467.84412003 C-344.8741942 466.5107405 -344.86897823 465.17736139 -344.86365891 463.8439827 C-344.86179113 462.46393256 -344.86036892 461.08388176 -344.85937119 459.70383072 C-344.85557434 456.09206143 -344.8457686 452.4803331 -344.83466721 448.86857986 C-344.82439184 445.17483957 -344.8198605 441.48109258 -344.81483078 437.78734207 C-344.80414348 430.55490163 -344.78710153 423.3224948 -344.76600266 416.09007645 C-330.50078927 414.85442269 -316.24913658 413.73114495 -301.94935226 412.98558426 C-286.14866583 412.67700448 -286.14866583 412.67700448 -271.76600266 407.09007645 C-268.59325024 402.05743468 -267.71468951 397.13193645 -267.44959641 391.2736702 C-267.40746017 390.35432693 -267.36532394 389.43498367 -267.32191086 388.48778152 C-267.28283615 387.51091385 -267.24376144 386.53404617 -267.20350266 385.52757645 C-267.16249435 384.51268143 -267.12148605 383.49778641 -267.07923508 382.45213699 C-265.24184134 361.41603779 -265.24184134 361.41603779 -268.76600266 341.09007645 C-276.44158551 332.98235622 -294.89256799 334.65539393 -305.38770676 334.19923782 C-307.95786628 334.08716072 -310.52743036 333.96544091 -313.09705734 333.84178543 C-321.58988009 333.43774472 -330.08385791 333.07259188 -338.57981491 332.74110794 C-342.45477222 332.58859042 -346.32934711 332.42733355 -350.2039299 332.26561356 C-352.95238095 332.15513385 -355.70108801 332.0588928 -358.45008469 331.96312332 C-380.52308222 331.10942872 -380.52308222 331.10942872 -387.48865891 326.15257645 C-389.54936163 321.21193138 -389.30141188 316.38349105 -389.20350266 311.09007645 C-389.2105925 310.00984207 -389.21768234 308.9296077 -389.22498703 307.81663895 C-389.14192635 297.46600014 -389.14192635 297.46600014 -384.76600266 293.09007645 C-379.24113589 292.10183333 -373.73457137 291.79420434 -368.13319016 291.5627327 C-367.14535538 291.52140717 -366.1575206 291.48008163 -365.13975143 291.43750381 C-340.00056581 290.4714332 -314.81526465 290.47870031 -289.66122055 290.27676773 C-277.49392643 290.17520286 -265.32937991 290.0072352 -253.16361618 289.78931713 C-243.55020363 289.61982607 -233.93678504 289.49573651 -224.32235336 289.40075397 C-218.44063962 289.34081836 -212.56094217 289.25947215 -206.68037033 289.12739944 C-201.11355921 289.00307079 -195.54890801 288.9364158 -189.98079109 288.91204453 C-187.92596949 288.89297588 -185.87121718 288.853188 -183.81725121 288.790905 C-167.38052467 288.31093896 -167.38052467 288.31093896 -162.144207 292.703022 C-159.2931523 295.56127048 -157.0232633 298.74549263 -154.76600266 302.09007645 C-153.6204472 303.441591 -152.45906376 304.78030773 -151.26600266 306.09007645 C-150.72717453 306.70882645 -150.18834641 307.32757645 -149.63319016 307.96507645 C-140.5724206 318.27691461 -131.75378232 328.11536828 -119.76600266 335.09007645 C-119.45920578 334.46874832 -119.15240891 333.8474202 -118.83631516 333.20726395 C-117.76600266 331.09007645 -117.76600266 331.09007645 -116.64100266 329.21507645 C-115.38987003 326.1766115 -115.34730328 324.38589356 -115.76600266 321.09007645 C-117.44285251 318.24794516 -119.54439667 315.82691449 -121.70350266 313.34007645 C-122.2974382 312.63415359 -122.89137375 311.92823074 -123.50330734 311.20091629 C-128.13778131 305.72301317 -132.90381851 300.36644665 -137.76600266 295.09007645 C-139.26803264 293.42523901 -140.76800145 291.75853986 -142.26600266 290.09007645 C-144.59201117 287.50244307 -146.9217822 284.91869457 -149.26209641 282.3439827 C-150.06776047 281.45581863 -150.87342453 280.56765457 -151.70350266 279.65257645 C-152.43440109 278.84949051 -153.16529953 278.04640457 -153.91834641 277.2189827 C-155.76600266 275.09007645 -155.76600266 275.09007645 -157.76600266 272.09007645 C-160.44761792 271.65708664 -160.44761792 271.65708664 -163.63563156 271.76536942 C-164.87358475 271.7688237 -166.11153793 271.77227798 -167.38700485 271.77583694 C-168.75552639 271.79454085 -170.12404646 271.8133531 -171.49256516 271.83226395 C-172.9151954 271.8404222 -174.33783497 271.84707736 -175.76047897 271.852314 C-179.53940966 271.86950397 -183.31798743 271.90366903 -187.09675217 271.94237137 C-193.74937464 272.00820913 -200.40221904 272.04723868 -207.05506516 272.08226395 C-207.78563377 272.08644081 -208.51620239 272.09061768 -209.26890945 272.09492111 C-220.28331408 272.15182439 -231.280297 272.00533876 -242.28944016 271.66038895 C-243.58669022 271.62065964 -244.88394028 271.58093033 -246.22050095 271.5399971 C-253.46086464 271.28834404 -260.5249768 270.74835152 -267.76600266 270.09007645 C-267.76600266 254.25007645 -267.76600266 238.41007645 -267.76600266 222.09007645 C-262.32486984 222.01659988 -262.32486984 222.01659988 -256.77381516 221.94163895 C-231.72414651 221.57971765 -206.70816039 221.10830634 -181.69031906 219.75072098 C-180.10226858 219.66456715 -178.51421532 219.57846452 -176.92615891 219.4924202 C-176.19505905 219.45251968 -175.4639592 219.41261917 -174.7107048 219.37150955 C-169.38624021 219.09255303 -164.0962612 219.00939645 -158.76600266 219.09007645 C-159.09600266 214.47007645 -159.42600266 209.85007645 -159.76600266 205.09007645 C-174.40659108 203.55493467 -188.8699167 202.77676668 -203.58631516 202.7111702 C-205.62423541 202.69488782 -207.66214859 202.67769799 -209.70005417 202.65967178 C-215.02581456 202.61451705 -220.35158707 202.57951791 -225.67744064 202.54747391 C-250.43003106 202.39421292 -275.18509132 202.23475497 -299.9336319 201.74277306 C-301.77551215 201.70688151 -303.61744583 201.6736076 -305.45942688 201.64332771 C-338.77420865 201.08187045 -338.77420865 201.08187045 -341.76600266 198.09007645 C-341.88821791 196.64823352 -341.94373023 195.20064501 -341.97132492 193.75389481 C-342.00124275 192.37257622 -342.00124275 192.37257622 -342.03176498 190.9633522 C-342.04847748 189.96231964 -342.06518997 188.96128708 -342.08240891 187.9299202 C-342.10319 186.91031708 -342.1239711 185.89071396 -342.14538193 184.84021378 C-342.21099117 181.56940597 -342.269815 178.29851508 -342.32850266 175.02757645 C-342.37167707 172.81597917 -342.41529099 170.60439042 -342.45936203 168.39281082 C-342.56668405 162.95865494 -342.66842889 157.52441563 -342.76600266 152.09007645 C-341.37455725 152.08372854 -341.37455725 152.08372854 -339.95500183 152.07725239 C-317.25455194 151.9734906 -294.5541304 151.86467642 -271.85372925 151.75073719 C-260.87544078 151.69574809 -249.89714909 151.6423275 -238.91883469 151.59276199 C-229.3363979 151.54949451 -219.75398173 151.50311857 -210.17157722 151.4531979 C-205.11028854 151.42693409 -200.04900304 151.4020988 -194.98768997 151.38100243 C-166.81754638 151.27614176 -166.81754638 151.27614176 -138.66217041 150.42966175 C-135.69709116 150.30012384 -132.7322389 150.18948377 -129.76600266 150.09007645 C-128.60990746 150.04623384 -127.45381226 150.00239124 -126.26268387 149.95722008 C-125.10227333 149.93073324 -123.94186279 149.90424641 -122.7462883 149.87695694 C-121.69307011 149.84730126 -120.63985191 149.81764559 -119.55471802 149.78709126 C-116.39655967 150.13021527 -115.22054669 150.83659541 -112.96912766 153.01976395 C-111.94531731 154.30440611 -110.96135107 155.62164447 -110.01600266 156.96507645 C-108.93613778 158.34986544 -107.85540593 159.7339788 -106.77381516 161.1174202 C-106.00859543 162.138116 -106.00859543 162.138116 -105.22791672 163.17943192 C-103.25342085 165.75999382 -101.09429026 168.14130394 -98.89100266 170.52757645 C-96.87143353 172.7417586 -94.8803915 174.95096163 -92.97694016 177.2658577 C-88.91425727 182.19116503 -84.6153964 186.35183566 -78.76600266 189.09007645 C-74.96697691 189.2307811 -73.62523202 188.86615458 -70.82850266 186.34007645 C-69.44583759 183.41207983 -69.9115207 182.18075587 -70.76600266 179.09007645 C-78.79032146 162.87598897 -93.30847054 148.93981822 -105.76600266 136.09007645 C-106.15884445 135.54351395 -106.55168625 134.99695145 -106.95643234 134.43382645 C-109.86323559 132.27529365 -113.09654188 132.62882456 -116.58240891 132.61351395 C-117.35350494 132.59793442 -118.12460098 132.58235489 -118.91906357 132.56630325 C-121.388865 132.5187906 -123.85838929 132.49108017 -126.32850266 132.46507645 C-129.55908879 132.41648178 -132.7894964 132.35994897 -136.01990891 132.30101395 C-136.79097977 132.28818375 -137.56205063 132.27535355 -138.35648727 132.26213455 C-143.87185299 132.15433073 -149.28775381 131.76860067 -154.76600266 131.09007645 C-154.76600266 128.09007645 -154.76600266 128.09007645 -153.04334641 126.1096077 C-152.27119797 125.38128738 -151.49904953 124.65296707 -150.70350266 123.90257645 C-147.86009124 121.15599948 -145.12199911 118.42868505 -142.57850266 115.40257645 C-138.64303628 110.80351855 -134.32598503 106.59615699 -130.00355148 102.36473465 C-127.0772623 99.48120704 -124.27502065 96.56120439 -121.60975266 93.43382645 C-115.98314177 86.91549821 -109.71303777 80.98267394 -103.59070969 74.93529129 C-101.94907535 73.3119562 -100.31062246 71.68545525 -98.67225266 70.05882645 C-98.18349655 69.57836868 -97.69474045 69.09791092 -97.19117355 68.60289383 C-94.4601984 65.89081497 -91.87756583 63.09930782 -89.36170578 60.18577957 C-85.8543245 56.13754604 -82.13915984 52.3514682 -78.32850266 48.59007645 C-77.64473557 47.91009598 -76.96096848 47.23011551 -76.25648117 46.52952957 C-73.36862492 43.65782501 -70.4747719 40.79219207 -67.58143234 37.92601395 C-65.45334541 35.81614858 -63.32837349 33.70318 -61.20350266 31.59007645 C-60.5616301 30.95650223 -59.91975754 30.32292801 -59.2584343 29.67015457 C-53.71320856 24.15459019 -48.39765465 18.55075273 -44.0030632 12.0627327 C-32.94018252 -2.97691484 -16.80534498 -0.69235184 0 0 Z " fill="#FEFEFE" transform="translate(409.7660026550293,7.909923553466797)"/>
<path d="M0 0 C19.62369419 7.60918754 33.98840594 40.92003133 44.57568359 57.81835938 C46.51237085 60.90433854 48.46123458 63.98252949 50.41015625 67.06079102 C56.13741682 76.10890818 61.81741302 85.18614187 67.48657227 94.27075195 C71.893264 101.32857814 76.332758 108.36485054 80.78955078 115.39111328 C83.60858792 119.8475609 86.3740606 124.33176702 89.09838867 128.84667969 C93.77333023 136.58228034 98.57439962 144.23396383 103.5 151.8125 C104.38727783 153.21024658 104.38727783 153.21024658 105.29248047 154.63623047 C105.85467285 155.49104004 106.41686523 156.34584961 106.99609375 157.2265625 C107.49165771 157.99178223 107.98722168 158.75700195 108.49780273 159.54541016 C109.01415283 160.0872998 109.53050293 160.62918945 110.0625 161.1875 C111.3825 161.1875 112.7025 161.1875 114.0625 161.1875 C114.990625 159.4859375 114.990625 159.4859375 115.9375 157.75 C117.72077269 155.09158352 118.53083404 154.29776274 121.71002197 153.63842773 C122.78830261 153.59145752 123.86658325 153.5444873 124.97753906 153.49609375 C126.23554321 153.43671631 127.49354736 153.37733887 128.78967285 153.31616211 C130.21387171 153.27079398 131.63815501 153.22802154 133.0625 153.1875 C133.81119858 153.16350128 134.55989716 153.13950256 135.33128357 153.11477661 C140.46008525 152.95477657 145.58918956 152.84049547 150.71950531 152.74194336 C153.61347886 152.68621749 156.50732637 152.62588677 159.40118408 152.56445312 C166.57898066 152.41294464 173.75691852 152.26867981 180.93487549 152.125 C187.02821887 152.00283488 193.12148013 151.87748765 199.21466827 151.74780273 C202.04945142 151.68874833 204.8842987 151.63432685 207.71917725 151.58007812 C221.9048198 152.29821032 221.9048198 152.29821032 234.53515625 148.26171875 C235.32212891 147.08029297 235.32212891 147.08029297 236.125 145.875 C236.67285156 145.09511719 237.22070312 144.31523437 237.78515625 143.51171875 C240.68158871 138.24145173 240.28019126 132.74307452 240.3125 126.875 C240.333125 125.95009766 240.35375 125.02519531 240.375 124.07226562 C240.4074789 118.36003852 239.98284517 114.16215695 237.0625 109.1875 C233.13693955 108.04551878 229.93753335 107.792488 226.0625 109.1875 C224.63560322 113.46819034 223.9180467 117.30080188 223.625 121.8125 C223.0118781 129.1398093 223.0118781 129.1398093 220.0625 132.1875 C209.08005137 137.06858828 194.30418248 135.34958244 182.4453125 135.35546875 C180.89264904 135.35869301 179.33998587 135.36205789 177.787323 135.36555481 C174.5619842 135.37148631 171.33667198 135.37340053 168.11132812 135.37280273 C163.99612591 135.3727005 159.88109382 135.38644275 155.76593208 135.40357494 C152.57104721 135.41472407 149.37620345 135.41672118 146.18130112 135.41619301 C144.66397379 135.41736525 143.14664514 135.42174408 141.62933731 135.42952538 C126.24794105 135.50114193 126.24794105 135.50114193 120.0625 133.1875 C116.84234416 128.35726624 117.49003524 123.15370735 118.56835938 117.56640625 C119.2481591 114.91498798 120.00865078 112.30387463 120.8125 109.6875 C121.19148438 108.37845703 121.19148438 108.37845703 121.578125 107.04296875 C126.70973899 89.72377154 126.70973899 89.72377154 132.0625 84.1875 C134.90008545 83.57276917 134.90008545 83.57276917 138.23730469 83.58813477 C139.49968964 83.58214264 140.76207458 83.57615051 142.06271362 83.56997681 C143.45327636 83.58897653 144.84383014 83.60864035 146.234375 83.62890625 C147.69108743 83.63245412 149.14780599 83.63398594 150.60452271 83.63363647 C154.52723206 83.63970754 158.44900035 83.67828775 162.37142181 83.72416306 C165.62532899 83.75860317 168.87923004 83.77493357 172.13326836 83.79169941 C197.89141195 83.9304169 223.63109595 84.57508892 249.3671875 85.65234375 C250.31199982 85.69096527 251.25681213 85.72958679 252.23025513 85.76937866 C258.20059318 86.03704779 264.12239648 86.53188605 270.0625 87.1875 C271.18487822 90.54186359 270.92449916 92.62088642 269.96508789 95.9987793 C269.69562851 96.95951859 269.42616913 97.92025787 269.14854431 98.91011047 C268.69022972 100.47634407 268.69022972 100.47634407 268.22265625 102.07421875 C267.90643814 103.17690598 267.59022003 104.2795932 267.26441956 105.41569519 C263.50340707 118.36877184 259.33445279 131.19261198 255.14807892 144.01293564 C254.03733713 147.41856321 252.93254064 150.82611739 251.82763672 154.23364258 C251.60572914 154.91796828 251.38382156 155.60229399 251.15518951 156.30735683 C250.70780048 157.68707081 250.26043308 159.0667918 249.81308746 160.44651985 C249.14748262 162.49871284 248.48124817 164.55070052 247.81488037 166.60264587 C244.34315371 177.2969184 240.92138252 188.00658694 237.52670288 198.72555542 C230.80153596 219.9575572 223.95824918 241.1497365 217.00769043 262.309021 C216.02121839 265.31321886 215.03649233 268.3179861 214.05175781 271.32275391 C189.11984542 347.32761242 189.11984542 347.32761242 181.0625 353.1875 C169.74066246 357.59746592 155.95579225 356.3499346 143.94677734 356.31787109 C141.56471396 356.31250499 139.18283903 356.31785877 136.80078125 356.32421875 C107.04471829 356.33842698 107.04471829 356.33842698 101.0625 352.1875 C94.22527641 344.66957937 89.39213454 335.22581323 84.2421875 326.5234375 C81.23338082 321.44871836 78.12701243 316.4399321 75 311.4375 C67.29369635 299.07121085 59.90785843 286.51467018 52.49282837 273.97264099 C49.45499279 268.83904137 46.38872481 263.72287728 43.3157196 258.61027527 C39.72405942 252.63175075 36.17306307 246.62948565 32.625 240.625 C26.63428587 230.50270923 20.61204692 220.39973932 14.5625 210.3125 C14.19367706 209.69696259 13.82485413 209.08142517 13.44485474 208.44723511 C12.37035768 206.65440312 11.29479704 204.86221457 10.21875 203.0703125 C9.70591713 202.21527885 9.70591713 202.21527885 9.182724 201.3429718 C7.39770234 198.37523154 5.5914468 195.42285482 3.75390625 192.48730469 C3.19479553 191.59131058 3.19479553 191.59131058 2.62438965 190.67721558 C1.59132626 189.02572734 0.55266931 187.37774189 -0.48632812 185.72998047 C-1.9375 183.1875 -1.9375 183.1875 -1.9375 181.1875 C-6.80446688 183.7904798 -10.65159591 186.48842513 -14.6875 190.3125 C-15.72519089 191.28262645 -16.76295301 192.25267673 -17.80078125 193.22265625 C-18.84692258 194.21033579 -19.89249842 195.19861464 -20.9375 196.1875 C-22.90858531 198.0508552 -24.88849264 199.90289666 -26.875 201.75 C-28.15697266 202.95849609 -28.15697266 202.95849609 -29.46484375 204.19140625 C-33.02364559 207.06430947 -35.68338767 208.1638375 -40.25 208.25 C-52.66547503 204.67265974 -63.83528179 187.76063079 -71.63671875 178.01953125 C-74.2965856 174.74550159 -77.04974018 171.56209095 -79.8125 168.375 C-84.32398701 163.1551981 -88.63944726 157.8164484 -92.86499023 152.36352539 C-95.93326059 148.41939231 -99.1128271 144.59713485 -102.375 140.8125 C-108.61254523 133.5614387 -114.27262339 125.88896402 -119.9375 118.1875 C-114.42744275 105.73885215 -101.66512932 95.74075766 -92.0871582 86.32299805 C-85.46036979 79.80654118 -85.46036979 79.80654118 -79.3449707 72.81591797 C-77.328128 70.48246769 -75.12986186 68.35715093 -72.9375 66.1875 C-71.71871367 64.96528366 -70.50094356 63.74205349 -69.28393555 62.51806641 C-65.54045249 58.75667035 -61.79382647 54.99842122 -58.04614258 51.24121094 C-56.43651479 49.62655155 -54.8277853 48.01099615 -53.2199707 46.39453125 C-50.88212444 44.04446502 -48.54098336 41.69772348 -46.19921875 39.3515625 C-45.49061203 38.63779449 -44.78200531 37.92402649 -44.05192566 37.18862915 C-40.07580298 33.2120674 -35.99228832 29.43743051 -31.73423767 25.76507568 C-29.38640276 23.70362435 -27.20064043 21.51319735 -25.02734375 19.26953125 C-24.18236328 18.40779297 -23.33738281 17.54605469 -22.46679688 16.65820312 C-20.731167 14.87810345 -18.99942255 13.09420757 -17.27148438 11.30664062 C-6.56376935 0.418964 -6.56376935 0.418964 0 0 Z " fill="#FEFEFE" transform="translate(456.9375,144.8125)"/>
<path d="M0 0 C5.91526329 -0.15817214 11.82974341 -0.2749329 17.74658203 -0.35397339 C19.88145431 -0.38833301 22.01615185 -0.43647941 24.15039062 -0.49880981 C27.08017513 -0.58136223 30.00622461 -0.61369014 32.93701172 -0.63232422 C33.78268204 -0.66725479 34.62835236 -0.70218536 35.49964905 -0.73817444 C37.89114642 -0.72043669 39.66299822 -0.6288904 41.90185547 0.21923828 C44.13169035 2.64330469 45.53794981 5.23786045 46.90185547 8.21923828 C47.23185547 8.87923828 47.56185547 9.53923828 47.90185547 10.21923828 C48.5995404 17.3754509 47.31794119 23.43637027 45.04248047 30.17626953 C44.74203323 31.1053009 44.441586 32.03433228 44.1320343 32.99151611 C43.15241742 36.00961993 42.15245263 39.02053221 41.15185547 42.03173828 C40.46425007 44.13539058 39.77798519 46.23948148 39.09301758 48.34399414 C37.7049646 52.60233912 36.30920023 56.85803501 34.90722656 61.11181641 C33.08282525 66.65472537 31.29140521 72.20761851 29.51513672 77.76611328 C25.27502576 91.0214188 21.00686685 104.27295135 16.40185547 117.40673828 C16.09965088 118.29820557 15.79744629 119.18967285 15.48608398 120.1081543 C15.20047607 120.9014917 14.91486816 121.6948291 14.62060547 122.51220703 C14.38277344 123.18791748 14.14494141 123.86362793 13.89990234 124.55981445 C12.53941334 126.82186038 11.37725107 127.33321107 8.90185547 128.21923828 C-3.71226797 130.14146977 -16.99337952 129.56285698 -29.72314453 129.78173828 C-30.88044067 129.8022525 -32.03773682 129.82276672 -33.23010254 129.84390259 C-101.80065538 131.04126894 -101.80065538 131.04126894 -127.09814453 128.21923828 C-127.79049982 117.71964771 -125.7846475 108.72432345 -122.84814453 98.78173828 C-122.39825735 97.21532638 -121.94922047 95.64867004 -121.50097656 94.08178711 C-116.38996342 76.35298124 -110.83861242 58.75321576 -105.09814453 41.21923828 C-104.69789063 39.99640137 -104.29763672 38.77356445 -103.88525391 37.51367188 C-94.26021613 8.37306932 -94.26021613 8.37306932 -88.09814453 3.21923828 C-86.12854004 2.72633362 -86.12854004 2.72633362 -83.81884766 2.56518555 C-82.92625244 2.50074249 -82.03365723 2.43629944 -81.11401367 2.36990356 C-75.26629327 2.07776607 -69.41933727 1.85454089 -63.56689453 1.68408203 C-62.14688137 1.6403692 -60.72687314 1.59649616 -59.30686951 1.55247498 C-44.48278713 1.09991338 -29.65637659 0.7267346 -14.82947826 0.3802681 C-9.88598344 0.26415329 -4.94300814 0.13527107 0 0 Z " fill="#FEFEFE" transform="translate(746.09814453125,8.78076171875)"/>
<path d="M0 0 C2.1569998 0.00422424 4.3139985 0.00715792 6.47100067 0.00988388 C39.47248202 0.05715914 39.47248202 0.05715914 53.91674042 0.39364243 C55.93753205 0.44006012 57.95857703 0.47501129 59.97960663 0.50954819 C66.83946939 0.71705293 72.49863421 0.98621533 78.01862431 5.45269585 C82.34063754 10.76366861 80.51945963 22.10582125 80.49645233 28.63747787 C80.49659836 29.74109161 80.49674438 30.84470535 80.49689484 31.98176193 C80.49620331 35.59602513 80.48844678 39.2102355 80.48058319 42.82448959 C80.47871631 45.34368486 80.47729368 47.8628805 80.47629547 50.38207626 C80.47287948 56.31392617 80.46501403 62.24575938 80.45494598 68.17760074 C80.44372499 74.93707264 80.43825938 81.69654549 80.43325055 88.45602441 C80.42282959 102.3470856 80.40526766 116.23813032 80.38292694 130.12917709 C64.90502489 130.1510409 49.43017405 130.12134685 33.95323944 129.94558334 C32.13259141 129.92554425 30.31194321 129.90552002 28.49129486 129.88550949 C24.72892187 129.84372821 20.96656585 129.80067578 17.204216 129.75686264 C12.44494898 129.70169931 7.68564302 129.65150737 2.92630959 129.60245991 C-0.81464533 129.5630472 -4.555554 129.52009459 -8.2964592 129.47623634 C-10.04946375 129.45624422 -11.80248281 129.43747504 -13.55551529 129.42010307 C-22.84446974 129.32671505 -32.12523656 129.13082717 -41.40662384 128.7344017 C-42.63592023 128.68992197 -42.63592023 128.68992197 -43.89005089 128.64454365 C-55.66287264 128.08337751 -55.66287264 128.08337751 -59.61707306 124.12917709 C-61.07756168 118.4081548 -60.80865388 112.43262534 -60.80457306 106.56667709 C-60.80449249 105.49925278 -60.80441193 104.43182846 -60.80432892 103.33205795 C-60.65868826 83.1707923 -60.65868826 83.1707923 -57.61707306 80.12917709 C-55.66292783 79.90938539 -53.70125488 79.75626856 -51.73889923 79.62917709 C-49.84643211 79.50627304 -49.84643211 79.50627304 -47.91573334 79.38088608 C-46.51803838 79.29639293 -45.12030655 79.21250784 -43.72254181 79.12917709 C-43.01254721 79.08560074 -42.3025526 79.04202438 -41.57104301 78.99712753 C-30.48313572 78.32192696 -19.3969362 77.8651201 -8.29285431 77.56667709 C-7.57909512 77.54749222 -6.86533592 77.52830734 -6.12994766 77.50854111 C0.42459007 77.33511299 6.97950569 77.17809219 13.53453827 77.02468491 C17.18968001 76.93858318 20.8445434 76.84427945 24.49936104 76.74541855 C26.5046401 76.69367695 28.51015532 76.65134989 30.51566315 76.6094017 C44.56794456 76.70877143 44.56794456 76.70877143 57.38292694 72.12917709 C57.74708741 69.69224399 57.74708741 69.69224399 57.57042694 67.00417709 C57.54335663 66.09409897 57.51628632 65.18402084 57.48839569 64.24636459 C57.453591 63.54769272 57.41878632 62.84902084 57.38292694 62.12917709 C39.99915893 58.73802538 22.36754135 58.92687407 4.72316742 58.68334579 C-1.84611568 58.5921664 -8.41519306 58.48854503 -14.98426056 58.38308334 C-16.89996101 58.3523951 -16.89996101 58.3523951 -18.85436249 58.32108688 C-32.78130751 58.08963868 -46.69911798 57.6826209 -60.61707306 57.12917709 C-60.66702118 51.79471785 -60.70304847 46.46039884 -60.72693634 41.12575912 C-60.73690922 39.31616465 -60.75049238 37.50658592 -60.76795197 35.69704819 C-61.03026718 7.78362338 -61.03026718 7.78362338 -55.61707306 2.12917709 C-51.29568454 0.75065993 -46.84915589 0.76942303 -42.35144806 0.57448959 C-40.91512024 0.5114212 -40.91512024 0.5114212 -39.4497757 0.4470787 C-26.30549547 -0.06917326 -13.15213297 -0.02623901 0 0 Z " fill="#FEFEFE" transform="translate(125.61707305908203,9.87082290649414)"/>
<path d="M0 0 C3.51111978 0.00008154 7.02210983 -0.00692666 10.53320312 -0.02050781 C44.03654201 -0.14785691 44.03654201 -0.14785691 60.31591797 1.07202148 C61.36103546 1.14975296 62.40615295 1.22748444 63.48294067 1.30757141 C68.0716753 1.70839447 71.94257581 2.13902868 76.13623047 4.18530273 C77.72093785 8.13680865 76.86589284 11.11655264 75.65966797 15.08764648 C75.31806641 16.2265332 74.97646484 17.36541992 74.62451172 18.53881836 C74.25712891 19.7215332 73.88974609 20.90424805 73.51123047 22.12280273 C72.99496094 23.84466797 72.99496094 23.84466797 72.46826172 25.60131836 C70.64453997 31.60748686 68.67235458 37.52610668 66.55386353 43.43458557 C66.32133283 44.08432484 66.08880213 44.73406411 65.84922504 45.40349245 C65.27865744 46.9975834 64.70750259 48.59146413 64.13623047 50.18530273 C45.87310811 50.36273772 27.60991855 50.52839312 9.34656429 50.68007851 C0.86631719 50.75078455 -7.61386364 50.82532497 -16.09399414 50.90893555 C-23.48644284 50.98181225 -30.87891457 51.04745037 -38.27150339 51.10444677 C-42.18475339 51.13486915 -46.09789696 51.16888173 -50.01103401 51.21156693 C-53.69712693 51.251661 -57.38317467 51.28204724 -61.06941223 51.30511665 C-63.06126675 51.3200726 -65.05303678 51.34520708 -67.04478455 51.37068176 C-73.04210126 51.39908747 -78.22093031 51.30357187 -83.86376953 49.18530273 C-85.06250744 45.42064668 -84.99318353 41.82220977 -84.99658203 37.89233398 C-84.99753876 37.18686935 -84.99849548 36.48140472 -84.9994812 35.75456238 C-85.00016049 34.26264354 -84.99832371 32.77072172 -84.99414062 31.27880859 C-84.98882877 29.02296085 -84.99407333 26.76731586 -85.00048828 24.51147461 C-85.0034676 17.34115874 -84.8787593 10.29828662 -83.86376953 3.18530273 C-55.97934969 0.07697455 -28.02220202 -0.00339391 0 0 Z " fill="#FEFEFE" transform="translate(672.86376953125,157.814697265625)"/>
<path d="M0 0 C1.52101318 -0.00580078 1.52101318 -0.00580078 3.07275391 -0.01171875 C4.13026855 -0.00269531 5.1877832 0.00632812 6.27734375 0.015625 C7.38899902 0.01949219 8.5006543 0.02335937 9.64599609 0.02734375 C21.56568722 0.14806646 33.34762656 1.17438664 45.21484375 2.265625 C45.21484375 15.135625 45.21484375 28.005625 45.21484375 41.265625 C25.08484375 41.265625 4.95484375 41.265625 -15.78515625 41.265625 C-15.78515625 28.395625 -15.78515625 15.525625 -15.78515625 2.265625 C-4.51504932 0.01160361 -4.51504932 0.01160361 0 0 Z " fill="#FEFEFE" transform="translate(80.78515625,359.734375)"/>
<path d="M0 0 C4.91688772 2.85561577 8.09278613 6.80107299 9.5625 12.3125 C10.1715907 18.58506564 9.91185423 23.80227207 6.5625 29.3125 C1.85277865 33.78435664 -3.30820389 35.95824006 -9.75 36.6875 C-16.16307518 36.03532286 -22.16717706 32.98575538 -27.4375 29.3125 C-30.83809588 24.21160618 -29.97145034 18.26505747 -29.4375 12.3125 C-27.91038526 6.90568834 -25.21609317 3.34282738 -20.4375 0.3125 C-13.89824345 -2.71574632 -6.61729225 -3.06080746 0 0 Z " fill="#FEFEFE" transform="translate(35.4375,366.6875)"/>
<path d="M0 0 C4.9263403 4.0878143 9.39594524 9.08185246 10.2109375 15.63671875 C10.47877019 22.19861958 9.33770277 26.47581303 4.9375 31.4375 C-1.80763179 36.69870279 -7.73148561 37.1660678 -16.0625 36.4375 C-20.03525833 35.43311504 -22.83985166 33.94496983 -25.4375 30.7421875 C-28.84753928 24.89302291 -29.03088496 18.70584292 -27.5546875 12.19921875 C-25.62148898 6.29963016 -22.42458514 2.78726294 -17 -0.3125 C-10.83309917 -2.93671312 -6.20982269 -3.16827688 0 0 Z " fill="#FEFEFE" transform="translate(553.0625,162.5625)"/>
<path d="M0 0 C4.84051889 3.05999531 8.71231755 7.73208269 10.11328125 13.3359375 C10.59090107 18.58975551 10.09789204 21.95229041 7.11328125 26.3359375 C1.89546904 31.16212584 -3.1069996 33.9859635 -10.26171875 34.6484375 C-16.58148371 34.10363018 -21.04973984 32.67284785 -25.32421875 27.8359375 C-29.02399007 23.23894644 -29.2913313 18.94682374 -29.23046875 13.1953125 C-28.69028234 8.70194372 -26.89643828 5.65916948 -23.88671875 2.3359375 C-16.13650047 -3.70923276 -8.69653972 -4.23562038 0 0 Z " fill="#FEFEFE" transform="translate(36.88671875,164.6640625)"/>
<path d="M0 0 C6.54857382 2.47841619 10.99000819 7.43683271 14.375 13.4375 C15.54463807 18.23301607 14.62765592 21.83767423 12.3125 26.125 C7.84891144 31.67432632 2.99255753 35.4798788 -4 37 C-11.02625604 37.11152787 -15.71005886 34.55881106 -21 30 C-24.89205506 24.92853432 -24.65180822 19.14168594 -24 13 C-22.22766847 7.47449583 -18.55001893 4.36591762 -14 1 C-9.7785068 -1.1107466 -4.58368307 -0.50610302 0 0 Z " fill="#FEFEFE" transform="translate(98,237)"/>
</svg>
